<mxfile host="app.diagrams.net" modified="2020-06-08T07:23:58.380Z" agent="5.0 (Macintosh; Intel Mac OS X 10_15_4) AppleWebKit/537.36 (KHTML, like Gecko) Chrome/83.0.4103.61 Safari/537.36" etag="bmTAx0eawYkzbE8fdJB-" version="13.1.12" type="github">
  <diagram id="YXHn5rCA2dFujNGSfvAq" name="第 1 页">
    <mxGraphModel dx="1186" dy="773" grid="1" gridSize="10" guides="1" tooltips="1" connect="1" arrows="1" fold="1" page="0" pageScale="1" pageWidth="4681" pageHeight="3300" math="0" shadow="0">
      <root>
        <mxCell id="0" />
        <mxCell id="1" parent="0" />
        <mxCell id="YnyFQiCtEDRMxmFCV8oF-2" value="" style="whiteSpace=wrap;html=1;aspect=fixed;" vertex="1" parent="1">
          <mxGeometry x="335" y="168" width="475" height="475" as="geometry" />
        </mxCell>
        <mxCell id="YnyFQiCtEDRMxmFCV8oF-3" value="Center (0, 0)" style="text;html=1;strokeColor=none;fillColor=none;align=center;verticalAlign=middle;whiteSpace=wrap;rounded=0;" vertex="1" parent="1">
          <mxGeometry x="512.75" y="395.5" width="119.5" height="20" as="geometry" />
        </mxCell>
        <mxCell id="YnyFQiCtEDRMxmFCV8oF-4" value="TopLeft (-1, -1)" style="text;html=1;strokeColor=none;fillColor=none;align=center;verticalAlign=middle;whiteSpace=wrap;rounded=0;" vertex="1" parent="1">
          <mxGeometry x="351" y="198" width="119.5" height="20" as="geometry" />
        </mxCell>
        <mxCell id="YnyFQiCtEDRMxmFCV8oF-5" value="BottomRight (1, 1)" style="text;html=1;strokeColor=none;fillColor=none;align=center;verticalAlign=middle;whiteSpace=wrap;rounded=0;" vertex="1" parent="1">
          <mxGeometry x="689" y="586" width="119.5" height="20" as="geometry" />
        </mxCell>
        <mxCell id="YnyFQiCtEDRMxmFCV8oF-6" value="BottomLeft (-1, 1)" style="text;html=1;strokeColor=none;fillColor=none;align=center;verticalAlign=middle;whiteSpace=wrap;rounded=0;" vertex="1" parent="1">
          <mxGeometry x="360" y="586" width="119.5" height="20" as="geometry" />
        </mxCell>
        <mxCell id="YnyFQiCtEDRMxmFCV8oF-7" value="TopRight (-1, 1)" style="text;html=1;strokeColor=none;fillColor=none;align=center;verticalAlign=middle;whiteSpace=wrap;rounded=0;" vertex="1" parent="1">
          <mxGeometry x="679" y="198" width="119.5" height="20" as="geometry" />
        </mxCell>
      </root>
    </mxGraphModel>
  </diagram>
</mxfile>
